<?xml version="1.0" encoding="UTF-8"?><svg id="Layer_2" xmlns="http://www.w3.org/2000/svg" viewBox="0 0 142.57 140.27"><defs><style>.cls-1{fill:#23ffd6;}.cls-2{fill:#fff;}.cls-3{fill:none;}.cls-4{fill:#231f20;}</style></defs><g id="Layer_4"><circle class="cls-1" cx="36.51" cy="86.92" r="2.47"/><circle class="cls-1" cx="71.1" cy="122.42" r="2.47"/><circle class="cls-1" cx="59.05" cy="114.38" r="2.47"/><circle class="cls-1" cx="105.49" cy="102.15" r="2.47"/><circle class="cls-1" cx="76.13" cy="21.76" r="2.47"/><path class="cls-1" d="M86.77,84.41c-.29,0-.57-.14-.74-.4-2.35-3.65-4.99-7.21-7.85-10.61-.31-.37-.27-.93.11-1.24.37-.31.93-.27,1.24.11,2.91,3.45,5.59,7.08,7.99,10.79.26.41.15.96-.26,1.22-.15.09-.31.14-.48.14Z"/><path class="cls-1" d="M60.38,89.15c-.3,0-.58-.15-.75-.42-.25-.41-.13-.96.29-1.21,7.04-4.34,14.73-7.79,22.85-10.25.47-.14.96.12,1.1.59.14.47-.12.96-.59,1.1-7.98,2.42-15.53,5.81-22.44,10.07-.14.09-.3.13-.46.13Z"/><path class="cls-1" d="M60.9,96.61c-.28,0-.55-.13-.73-.38-.28-.4-.18-.95.22-1.23,3.22-2.23,6.66-4.28,10.22-6.09.85-.38,1.46-1.02,1.71-1.78.15-.45.24-1.15-.19-1.9-.42-.73-.85-1.46-1.29-2.19-.25-.42-.12-.96.3-1.21.42-.25.96-.12,1.21.3.45.74.88,1.49,1.31,2.23.58,1.03.7,2.21.33,3.32-.4,1.23-1.36,2.26-2.62,2.82-3.45,1.75-6.81,3.76-9.97,5.94-.15.11-.33.16-.5.16Z"/><path class="cls-1" d="M75.95,80.9c-.31,0-.61-.16-.77-.45-.44-.78-.88-1.56-1.34-2.33-.8-1.37-2.96-1.93-4.71-1.21-1.64.66-3.28,1.37-4.87,2.11-.44.21-.97.01-1.17-.43-.21-.44-.01-.97.43-1.17,1.62-.75,3.28-1.47,4.95-2.14,2.57-1.04,5.66-.16,6.89,1.96.46.78.91,1.57,1.36,2.36.24.42.09.96-.34,1.2-.14.08-.28.11-.43.11Z"/><path class="cls-1" d="M87.28,88.68c-1.78,0-3.5-.85-4.47-2.34-1.3-2.02-2.71-4.03-4.17-5.97-.29-.39-.22-.94.17-1.24.39-.29.94-.21,1.24.17,1.49,1.98,2.92,4.02,4.24,6.07.85,1.3,2.68,1.87,4.25,1.33,1.04-.37,2.11-.72,3.16-1.05.47-.14.96.12,1.11.58.14.47-.11.96-.58,1.11-1.04.32-2.08.67-3.1,1.03-.6.21-1.22.31-1.84.31Z"/><path class="cls-1" d="M65.69,78.78c-.08,1.2-1.3,2.15-2.73,2.17-1.43.02-2.59-.9-2.57-2.1.01-1.2,1.25-2.22,2.75-2.24,1.5-.02,2.63.97,2.55,2.17Z"/><path class="cls-1" d="M62.16,96.34c.02,1.2-.93,2.18-2.13,2.25-1.2.06-2.25-.82-2.34-2.02-.09-1.19.88-2.24,2.15-2.31,1.27-.07,2.3.88,2.32,2.07Z"/><path class="cls-1" d="M95.86,87.01c-.42,1.12-1.79,1.69-3.07,1.3-1.28-.39-2.05-1.6-1.7-2.74.35-1.14,1.76-1.77,3.11-1.36,1.35.41,2.08,1.68,1.66,2.8Z"/><path class="cls-1" d="M28.62,86.02c-.86,0-1.68-.3-2.34-.87l-5.3-4.55c-.37-.32-.41-.87-.09-1.24s.88-.41,1.24-.09l5.3,4.55c.37.32.84.48,1.34.44.49-.04.93-.27,1.25-.64l1.86-2.19c.65-.77.56-1.93-.2-2.58l-5.29-4.54c-.37-.32-.41-.87-.09-1.24.32-.37.88-.41,1.24-.09l5.29,4.54c1.5,1.29,1.68,3.56.4,5.06l-1.86,2.19c-.63.73-1.5,1.18-2.46,1.26-.1,0-.19.01-.29.01Z"/><path class="cls-1" d="M37.4,88.57c-.2,0-.41-.07-.57-.21l-5.62-4.78c-.37-.32-.42-.87-.1-1.24.32-.37.87-.41,1.24-.1l5.62,4.78c.37.32.42.87.1,1.24-.17.21-.42.31-.67.31Z"/><path class="cls-1" d="M76.13,21.55c-.31,0-.61-.17-.77-.46l-2.54-4.63c-.2-.34-.6-.54-1.01-.49l-1.95.91c-1.3.27-2.58-.39-3.13-1.61-3.72-8.27-14.48-11.51-14.58-11.54-.47-.14-.73-.63-.6-1.09.14-.47.63-.73,1.09-.6.47.14,11.64,3.49,15.7,12.51.19.43.62.67,1.07.62l1.95-.91c1.19-.25,2.39.29,3,1.33l2.55,4.65c.23.43.08.96-.35,1.2-.13.07-.28.11-.42.11Z"/><path class="cls-1" d="M66.25,9.26h-3.82c-.49,0-.88-.39-.88-.88s.39-.88.88-.88h3.82l-4.34-3.18c-.39-.29-.48-.84-.19-1.23.29-.39.84-.48,1.23-.19l4.34,3.18c.62.46.87,1.23.63,1.97-.24.74-.9,1.21-1.67,1.21Z"/><path class="cls-1" d="M51.3,124.49c-.38,0-.73-.24-.84-.62-.14-.47.12-.96.58-1.1l7.38-2.29c.44-.14.72-.58.64-1.04l-.61-3.57c-.08-.48.24-.94.72-1.02.48-.08.94.24,1.02.72l.61,3.57c.23,1.32-.57,2.62-1.85,3.02l-7.38,2.29c-.09.03-.18.04-.26.04Z"/><path class="cls-1" d="M59.93,125.7c-1.15,0-2.22-.75-2.57-1.89l-.59-1.9c-.14-.47.12-.96.58-1.1.47-.14.96.12,1.1.58l.59,1.9c.14.47.63.74,1.1.63l9.79-2.35c.48-.11.95.18,1.06.65.11.47-.18.95-.65,1.06l-9.79,2.35c-.21.05-.42.07-.63.07Z"/><path class="cls-1" d="M106.81,100.84c-.15,0-.31-.04-.45-.13-.42-.25-.55-.79-.3-1.21l6.34-10.57c.25-.42.79-.55,1.21-.3.42.25.55.79.3,1.21l-6.34,10.57c-.17.28-.46.43-.76.43Z"/><path class="cls-2" d="M92.46,40.65c-.07-.16-.24-.23-.47-.2,0-.07-.02-.13-.05-.18-.08-.18-.27-.28-.51-.27,0-.08-.03-.15-.06-.22-.11-.24-.36-.36-.66-.32-.02.01-.05,0-.07.01,0-.19-.02-.33-.08-.47-.1-.23-.32-.37-.58-.4-.01-.1-.04-.19-.08-.28-.13-.28-.4-.45-.71-.45-.02.01-.07,0-.1,0,0-.23-.03-.4-.11-.56-.12-.27-.36-.45-.63-.49-.02-.12-.05-.22-.1-.33-.14-.31-.42-.52-.73-.54-.03,0-.07,0-.1,0,0-.23-.05-.41-.12-.58-.02-.04-.05-.06-.08-.1.19-.15.36-.34.45-.58.08-.23.09-.44.07-.73.04,0,.08-.02.12-.04.28-.11.53-.38.63-.7.06-.19.08-.38.06-.59,0,0,.02,0,.03-.01.28-.1.52-.35.61-.66.07-.23.08-.46.03-.89.08,0,.15,0,.23-.03.27-.07.5-.29.58-.58.04-.16.05-.31.03-.49.26-.05.46-.24.53-.5.04-.15.04-.3,0-.47.25-.02.43-.18.48-.42.03-.14.02-.28-.02-.46.24.02.41-.1.44-.32.03-.23-.06-.52-.28-1.1.08-.03.13-.11.13-.22.01-.35-.36-1.03-.79-1.53,0,0-.02-.02-.02-.03,0-.01-.02-.02-.02-.03-.23-.31-.57-.81-.89-.91-.19-.06-.31.07-.34.32-.02.18,0,.37.08.66-.03,0-.07-.01-.1-.02-.21-.01-.37.16-.42.44-.03.16-.02.32,0,.51,0,0,0,0,0,0-.23.02-.41.23-.48.53-.03.16-.04.33-.01.51-.24.05-.44.28-.51.59-.04.17-.05.34-.04.53-.25.08-.46.33-.55.65-.07.24-.07.49-.04.93-.07,0-.15.02-.23.05-.27.1-.5.38-.6.71-.06.2-.08.39-.07.62-.01,0-.02,0-.03.01-.27.11-.51.4-.62.74-.07.23-.09.45-.07.75-.04.01-.08.02-.12.04-.13.06-.26.16-.36.28-.08-.03-.16-.06-.24-.06,0,0-.02,0-.03,0-.01-.19-.05-.34-.11-.49-.13-.3-.39-.5-.67-.53-.01-.14-.05-.26-.1-.39-.14-.31-.41-.51-.71-.5-.04-.02-.1,0-.14.01,0-.27-.03-.45-.1-.63-.11-.27-.34-.44-.6-.45-.01-.11-.04-.21-.08-.31-.11-.26-.32-.41-.58-.4,0-.11-.03-.21-.07-.31-.1-.24-.31-.37-.56-.34,0-.11-.02-.2-.06-.29-.1-.25-.33-.35-.6-.25,0,0-.02,0-.04.01.01-.16,0-.29-.03-.39-.08-.22-.29-.28-.55-.15-.43.22-.79.75-1.07,1.14-.02.03-.04.06-.07.09-.44.5-.71,1.06-.57,1.34.04.08.11.14.21.16-.15.52-.19.77-.09.97.09.18.31.27.57.24,0,.1.03.18.07.26.1.21.32.32.59.32,0,.1.03.19.08.28.11.22.34.36.61.38.01.1.04.2.08.29.13.27.4.44.71.43.05,0,.1,0,.14-.01,0,.26.03.43.11.59.13.28.39.47.68.5.01.13.05.25.1.37.14.3.43.51.73.53.01,0,.02,0,.03,0,.01.18.05.33.11.48.09.19.23.34.39.44,0,.02-.03.04-.04.06-.08.24-.1.47-.07.84-.06,0-.13.03-.19.05-.28.11-.52.37-.63.69-.06.17-.08.34-.06.53-.27.09-.5.34-.6.64-.07.22-.08.44-.03.81-.06,0-.13,0-.19.03-.27.07-.49.28-.57.57-.04.15-.05.29-.04.45-.24.05-.43.24-.5.49-.05.19-.04.39.02.69-.05,0-.09-.01-.14-.01-.25,0-.43.15-.48.38-.02.11-.02.23,0,.36-.2,0-.35.1-.38.29-.01.1,0,.2.02.32-.18-.03-.3.04-.32.2-.03.32.34.98.77,1.5.04.05.08.1.13.14.05.07.11.15.17.24.31.43.58.81.83,1.04.1.08.19.15.29.17.19.06.33-.07.37-.33.02-.12.01-.24,0-.38.18-.01.31-.17.36-.42.02-.13.03-.27,0-.42.2-.04.35-.22.41-.49.05-.21.04-.43,0-.75.05,0,.09,0,.14-.01.24-.05.44-.28.53-.59.04-.16.06-.32.04-.49.24-.08.44-.33.53-.63.07-.23.08-.46.04-.85.06,0,.12-.02.19-.04.27-.1.5-.37.6-.7.06-.18.08-.36.07-.55.27-.11.51-.39.62-.73.08-.24.1-.48.07-.86.06-.01.12-.03.18-.06.01.23.05.41.12.58.13.29.36.49.63.54.02.12.05.23.09.34.13.32.4.53.7.53.02,0,.07,0,.1,0,0,.24.03.41.1.58.11.27.32.44.57.47.01.1.04.2.08.3.12.3.37.46.65.43.03,0,.04,0,.06-.01,0,.2.01.36.07.5.09.24.27.37.49.37,0,.08.02.16.05.24.08.22.24.33.45.31,0,.08.02.15.04.21.08.24.29.33.56.22,0,0,0,0,0,0,.47-.21.83-.77,1.34-1.49.09-.13.19-.26.26-.37,0,0,.02-.02.02-.02.48-.5.79-1.12.65-1.44Z"/><path class="cls-2" d="M55.17,58.88c11.07,2.11,21.62-.92,26.86-11.52,0,0,.16.07.16.07-2.88,7.75-10.68,13.8-19.09,13.77-2.81-.08-5.61-.74-7.99-2.16l.06-.16h0Z"/><path class="cls-2" d="M112.94,85.11l-10.23-10.34c4.43.16,10.81-.38,14.93-3.95,2.84-2.47,4.19-5.94,4.01-10.34-.4-9.77-9.34-14.15-18.01-14.15l-13.09.92c3-6.99,3.62-14.45,1.69-21.58C87.02,6.39,64.57-4.37,42.21,1.69,19.84,7.75,5.89,28.36,11.11,47.65c2.46,9.07,8.74,16.51,17.73,21.08l-13.99,16.31-.13.15-.09.18c-1.23,2.35-1.97,4.89-2.19,7.54-.84,9.97,6.46,18.61,16.62,19.67,3.72.39,7.43-.25,10.75-1.85,3.11-1.5,5.67-3.97,7.4-7.15l1.51-2.78-1.25,18.36v.02c-1.09,10.45,6.51,19.85,16.96,20.99.67.07,1.34.11,2,.11,9.34,0,17.49-7.08,19.05-16.91l2.76-11.55,7.33,2.91c5.7,2.62,7.96,3.38,12.83,2.37,7.96-1.65,13.71-8.74,13.66-16.86-.04-5.65-4.58-11.64-9.1-15.12ZM103.7,49.85c6.47.02,14.1,2.84,14.43,10.76.14,3.31-.78,5.77-2.79,7.52-5.43,4.72-16.88,2.68-16.99,2.66l-5.19-.95c-1.8-1.3-3.82-2.37-5.64-3.59-2.49-1.55-4.93-3.18-7.33-4.87,2.57-2.29,4.87-4.84,6.79-7.66.63-.92,1.2-1.86,1.74-2.82l14.97-1.06ZM14.52,46.72C9.8,29.32,22.64,10.64,43.13,5.09c1.23-.33,2.46-.59,3.69-.82,3.07,1.16,5.93,2.9,8.52,4.9,8.46,6.51,13.79,16.28,15.8,26.67,1.07,5.2,1.46,10.51,1.15,15.82.78-5.27.63-10.71-.38-15.97-1.86-10.57-7.55-20.54-16.25-26.93-2.53-1.89-5.35-3.5-8.35-4.56,2.52-.44,5.03-.67,7.5-.67,16.1,0,30.23,9,34.04,23.07,1.87,6.91,1.04,14.2-2.3,20.94h-.07s0,.13,0,.13c-.7,1.39-1.49,2.75-2.4,4.08-5.4,7.92-13.87,13.78-23.84,16.48-9.98,2.7-20.24,1.93-28.9-2.19-8.57-4.07-14.54-10.93-16.81-19.31ZM82,122.75c-1.35,8.7-8.89,14.8-17.19,13.91-8.55-.93-14.75-8.63-13.83-17.18l.09-.84-.03-.03,2.3-33.71-9.23,17c-1.37,2.52-3.39,4.47-5.83,5.65-2.73,1.32-5.79,1.84-8.85,1.52-8.23-.86-14.15-7.82-13.47-15.87.18-2.11.75-4.14,1.71-6.02l14.52-16.93c5,2,10.4,3.03,15.93,3.07.54.42,1.05.87,1.54,1.37,1.98,2.27,2.8,5.22,3.32,8.22.04-1.23-.03-2.47-.3-3.69-.46-2.45-1.63-4.4-3.23-5.92,3.88-.08,7.81-.62,11.69-1.67,2.51-.68,4.93-1.57,7.25-2.61,6.42,3.84,11.01,10.19,13.99,17.02,2.86,6.75,4.18,14.52,2.3,21.7-4.66,3.07-10.27,4.63-15.83,3.55-.87-.1-1.74-.24-2.61-.44,6.29,2.74,13.58,1.05,19.19-2.56l-3.42,14.32-.03.14ZM107.66,113.63c-3.82.79-5.22.37-10.68-2.14l-2.58-1.02-2.44-5.09c.77-.99,1.4-2.06,1.7-3.24,3.27-3.8,5.45-8.54,5.89-13.53-1.42,6.99-5.48,13.65-11.6,17.42-.62.31-1.24.6-1.87.87-.02-.03-.05-.07-.05-.07-.39.29-.8.55-1.2.82,1.27-3.6,1.44-7.53,1.11-11.33-1.29-10.89-7.39-22.19-17.27-27.4,4.01-1.83,7.67-4.18,10.9-6.96,2.53,1.64,5.1,3.21,7.71,4.69,1.84,1.13,3.85,2.1,5.67,3.3l17.55,17.74.19.16c4.57,3.48,7.78,8.58,7.81,12.41.04,6.44-4.52,12.07-10.84,13.38Z"/><circle class="cls-2" cx="133.71" cy="55.84" r="8.86"/><path class="cls-3" d="M128.99,51.15c-1.25,1.26-1.94,2.93-1.94,4.71,0,3.39,2.57,6.16,5.85,6.56v-13.16c-1.47.18-2.85.81-3.91,1.88Z"/><path class="cls-2" d="M133.72,62.5c3.67,0,6.65-3,6.64-6.67,0-3.67-3-6.64-6.66-6.64h-.01c-.27,0-.53.05-.79.08v13.16c.27.03.53.08.81.08h.02Z"/><path class="cls-3" d="M56.47,46.98c0-5.3-3.35-9.83-8.04-11.61,4.09,2.77,6.78,7.46,6.78,12.77,0,2.38-.56,4.63-1.52,6.65,1.73-2.14,2.77-4.85,2.77-7.81Z"/><path class="cls-2" d="M45.24,33.73c-1.69-.64-3.52-1.01-5.44-1.01-8.51,0-15.42,6.9-15.42,15.42s6.9,15.42,15.42,15.42c4.89,0,9.25-2.29,12.07-5.84,3.31-2.42,5.48-6.33,5.48-10.74,0-6.93-5.33-12.64-12.11-13.25ZM39.8,60.93c-7.05,0-12.79-5.74-12.79-12.79s5.74-12.79,12.79-12.79,12.79,5.74,12.79,12.79-5.74,12.79-12.79,12.79ZM48.43,35.37c4.69,1.78,8.04,6.3,8.04,11.61,0,2.96-1.04,5.67-2.77,7.81.97-2.01,1.52-4.26,1.52-6.65,0-5.32-2.69-10-6.78-12.77Z"/><path class="cls-2" d="M39.8,36.89c-6.2,0-11.25,5.05-11.25,11.25s5.05,11.25,11.25,11.25,11.25-5.05,11.25-11.25-5.05-11.25-11.25-11.25ZM40.14,58.88c-5.92,0-10.73-4.82-10.73-10.73s4.82-10.73,10.73-10.73,10.73,4.82,10.73,10.73-4.81,10.73-10.73,10.73Z"/><path class="cls-4" d="M40.14,37.04c-6.11,0-11.11,5-11.11,11.11s5,11.11,11.11,11.11,11.11-5,11.11-11.11-5-11.11-11.11-11.11Z"/><path class="cls-2" d="M40.14,58c-5.43,0-9.85-4.42-9.85-9.85s4.42-9.85,9.85-9.85c1.18,0,2.3.22,3.34.6-.46-.07-.92-.12-1.4-.12-1.82,0-3.51.57-4.9,1.53,2.01.43,3.53,2.21,3.53,4.36,0,2.46-1.99,4.46-4.46,4.46-1.05,0-2.01-.38-2.77-.99.36,4.43,4.07,7.92,8.6,7.92,2.73,0,5.16-1.27,6.74-3.25-1.66,3.1-4.93,5.21-8.68,5.21Z"/><path class="cls-1" d="M42.08,45.72c-.93,0-1.68.75-1.68,1.68s.75,1.68,1.68,1.68,1.68-.75,1.68-1.68-.75-1.68-1.68-1.68Z"/><path class="cls-1" d="M82,111.3c-.16,0-.32-.09-.39-.24l-1.07-2.13c-.11-.22-.02-.48.2-.59.22-.11.48-.02.59.2l1.07,2.13c.11.22.02.48-.2.59-.06.03-.13.05-.2.05Z"/><path class="cls-1" d="M95.67,101.78c-.09,0-.18-.03-.26-.08l-1.94-1.38c-.2-.14-.24-.42-.1-.62.14-.2.42-.24.62-.1l1.94,1.38c.2.14.24.42.1.62-.09.12-.22.19-.36.19Z"/><path class="cls-1" d="M97.41,99.11s-.08,0-.12-.02l-2.3-.64c-.24-.06-.37-.31-.31-.54.06-.23.31-.37.54-.31l2.3.64c.24.06.37.31.31.54-.05.2-.23.32-.42.32Z"/><path class="cls-1" d="M78.51,112.54c-.21,0-.39-.15-.43-.36-.16-.84-.27-1.71-.31-2.58-.01-.24.18-.45.42-.46.23-.02.45.18.46.42.04.83.14,1.66.29,2.46.05.24-.11.47-.35.52-.03,0-.06,0-.09,0Z"/><path class="cls-1" d="M50.68,78.14c-.16,0-.31-.09-.39-.24-.11-.22-.03-.48.19-.59.61-.32,1.26-.59,1.92-.81.23-.08.48.05.56.28.08.23-.05.48-.28.56-.62.21-1.22.46-1.79.76-.06.03-.13.05-.2.05Z"/><path class="cls-1" d="M82.23,64.53c-.1,0-.19-.03-.28-.1-.19-.15-.22-.43-.07-.62.43-.54.91-1.05,1.43-1.52.18-.16.46-.15.62.03s.15.46-.03.62c-.48.44-.93.92-1.34,1.42-.09.11-.22.16-.34.16Z"/><path class="cls-1" d="M69.26,32.56c-.2,0-.38-.14-.43-.34-.05-.24.1-.47.33-.53.83-.19,1.7-.31,2.57-.38.25-.02.45.16.47.41s-.16.45-.41.47c-.83.06-1.66.18-2.45.36-.03,0-.07.01-.1.01Z"/><path class="cls-1" d="M50.58,7.69c-.14,0-.28-.07-.37-.19-.14-.2-.08-.48.12-.61.71-.48,1.47-.91,2.26-1.29.22-.11.48-.01.59.21s.01.48-.21.59c-.75.36-1.47.77-2.15,1.23-.08.05-.16.07-.25.07Z"/><path class="cls-1" d="M48.84,6.43c-.17,0-.32-.09-.4-.25-.1-.22,0-.48.21-.59.78-.36,1.59-.68,2.43-.93.24-.07.48.06.55.29.07.23-.06.48-.29.55-.8.24-1.57.54-2.31.88-.06.03-.12.04-.19.04Z"/><path class="cls-1" d="M49.75,76.27c-.16,0-.31-.09-.39-.24-.11-.22-.03-.48.19-.6.61-.32,1.26-.6,1.92-.82.23-.08.48.05.56.28.08.23-.05.48-.28.56-.62.21-1.22.46-1.79.76-.07.03-.14.05-.2.05Z"/><path class="cls-1" d="M60.69,62.02s-.04,0-.05,0c-.24-.03-.41-.25-.38-.49.12-.97.15-1.95.11-2.92-.01-.24.18-.45.42-.46.28-.03.45.18.46.42.05,1.02.01,2.05-.11,3.07-.03.22-.22.39-.44.39Z"/><path class="cls-1" d="M73.88,58.91c-.23,0-.42-.18-.44-.41-.06-.97-.21-1.94-.44-2.88-.06-.24.09-.48.33-.53.24-.05.48.09.53.33.24,1,.39,2.02.46,3.03.02.24-.17.45-.41.47-.01,0-.02,0-.03,0Z"/><path class="cls-1" d="M80.97,52.13c-.1,0-.2-.03-.28-.1-.2-.16-.44-.47-.72-.83-.21-.26-.47-.59-.59-.69-.19-.15-.22-.43-.06-.62.15-.19.43-.22.62-.06.2.16.44.47.72.83.21.26.47.59.59.69.19.15.22.43.06.62-.09.11-.21.16-.34.16Z"/><path class="cls-1" d="M78.62,55.67c-.16,0-.31-.08-.39-.23l-1.49-2.73c-.12-.21-.04-.48.18-.6.21-.11.48-.04.6.18l1.49,2.73c.12.21.04.48-.18.6-.07.04-.14.05-.21.05Z"/><path class="cls-1" d="M66.28,61.72s-.03,0-.05,0c-.24-.03-.42-.24-.39-.48.1-.93.06-1.87-.11-2.78-.04-.24.11-.47.35-.51.23-.05.47.11.51.35.19,1,.22,2.02.12,3.04-.02.23-.22.39-.44.39Z"/><path class="cls-2" d="M133.69,46.98c-4.9.01-8.85,3.99-8.84,8.88,0,.65.08,1.29.21,1.9l-39.97,20.78c-.36.14-.53.51-.4.87.1.28.34.45.64.45.09,0,.18-.01.27-.05l41.04-18.65c1.62,2.15,4.19,3.54,7.09,3.54,4.9-.01,8.85-3.99,8.84-8.88-.01-4.9-3.99-8.85-8.88-8.84Z"/><path class="cls-2" d="M122.08,43.51c4.34-2.26,6.03-7.61,3.77-11.95-2.26-4.34-7.61-6.03-11.95-3.77-4.34,2.26-6.03,7.61-3.77,11.95.26.49.56.95.89,1.37l-29.82,33.75c-.25.29-.23.7.05.96.14.13.3.19.47.19.18,0,.35-.07.49-.21l31.72-32.27c2.47,1.28,5.5,1.38,8.16,0Z"/><path class="cls-2" d="M29.94,71.04l-18.91-7.89c.05-.28.09-.56.1-.85.09-3.07-2.34-5.63-5.41-5.72C2.65,56.49.09,58.91,0,61.99c-.09,3.07,2.34,5.63,5.41,5.72,1.82.05,3.45-.78,4.5-2.1l19.45,6.93c.09.03.19.05.28.05.32,0,.61-.19.74-.52.16-.42-.03-.86-.44-1.03Z"/><path class="cls-2" d="M64.06,105.19c-.14-.3-.49-.42-.79-.29l-23.57,10.62c-1.16-1.32-2.91-2.07-4.79-1.87-3.06.33-5.26,3.08-4.93,6.14.33,3.06,3.08,5.26,6.14,4.93,3.06-.33,5.26-3.08,4.93-6.14-.03-.27-.08-.53-.15-.79l22.89-11.82c.29-.15.41-.5.27-.8Z"/></g></svg>