<?xml version="1.0" encoding="UTF-8"?><svg id="Layer_2" xmlns="http://www.w3.org/2000/svg" viewBox="0 0 234.1 91.53"><defs><style>.cls-1{fill:#23ffd6;}.cls-2{fill:#fff;}.cls-3{fill:none;}.cls-4{fill:#231f20;}</style></defs><g id="Layer_4"><circle class="cls-1" cx="23.82" cy="56.72" r="1.61"/><circle class="cls-1" cx="46.39" cy="79.88" r="1.61"/><circle class="cls-1" cx="38.53" cy="74.64" r="1.61"/><circle class="cls-1" cx="68.84" cy="66.66" r="1.61"/><circle class="cls-1" cx="49.68" cy="14.2" r="1.61"/><path class="cls-1" d="M56.62,55.08c-.19,0-.37-.09-.48-.26-1.53-2.38-3.26-4.71-5.12-6.92-.2-.24-.17-.61.07-.81.24-.21.61-.17.81.07,1.9,2.25,3.65,4.62,5.21,7.04.17.27.09.62-.17.8-.1.06-.2.09-.31.09Z"/><path class="cls-1" d="M39.4,58.17c-.19,0-.38-.1-.49-.27-.17-.27-.08-.63.19-.79,4.59-2.83,9.61-5.08,14.91-6.69.31-.09.63.08.72.38.09.3-.08.63-.38.72-5.21,1.58-10.13,3.79-14.64,6.57-.09.06-.2.09-.3.09Z"/><path class="cls-1" d="M39.74,63.04c-.18,0-.36-.09-.47-.25-.18-.26-.12-.62.15-.8,2.1-1.46,4.35-2.79,6.67-3.97.55-.25.95-.67,1.11-1.16.1-.29.15-.75-.12-1.24-.27-.48-.56-.96-.84-1.43-.16-.27-.08-.63.2-.79.27-.16.63-.08.79.2.29.48.58.97.86,1.46.38.67.46,1.44.22,2.17-.26.8-.89,1.47-1.71,1.84-2.25,1.14-4.45,2.45-6.51,3.88-.1.07-.21.1-.33.1Z"/><path class="cls-1" d="M49.56,52.79c-.2,0-.4-.11-.5-.29-.28-.51-.58-1.02-.87-1.52-.52-.89-1.93-1.26-3.08-.79-1.07.43-2.14.89-3.18,1.37-.29.14-.63,0-.76-.28-.13-.29,0-.63.28-.76,1.06-.49,2.14-.96,3.23-1.4,1.67-.68,3.7-.11,4.5,1.28.3.51.6,1.02.89,1.54.16.28.06.63-.22.78-.09.05-.19.07-.28.07Z"/><path class="cls-1" d="M56.95,57.87c-1.16,0-2.28-.56-2.92-1.53-.85-1.32-1.77-2.63-2.72-3.9-.19-.25-.14-.61.11-.81.25-.19.61-.14.81.11.97,1.29,1.9,2.62,2.77,3.96.56.85,1.75,1.22,2.77.87.68-.24,1.37-.47,2.06-.69.31-.09.63.08.72.38.09.3-.07.63-.38.72-.68.21-1.36.44-2.03.67-.39.14-.8.2-1.2.2Z"/><path class="cls-1" d="M42.86,51.41c-.05.78-.85,1.4-1.78,1.42-.93.01-1.69-.59-1.68-1.37,0-.78.82-1.45,1.79-1.46.98-.01,1.72.63,1.66,1.41Z"/><path class="cls-1" d="M40.56,62.87c.01.78-.61,1.43-1.39,1.47-.78.04-1.47-.54-1.52-1.31-.06-.78.58-1.46,1.4-1.51.83-.04,1.5.57,1.51,1.35Z"/><path class="cls-1" d="M62.55,56.78c-.28.73-1.17,1.1-2,.85-.84-.25-1.34-1.04-1.11-1.79.23-.75,1.15-1.15,2.03-.89.88.27,1.36,1.09,1.09,1.83Z"/><path class="cls-1" d="M18.68,56.13c-.56,0-1.09-.2-1.52-.57l-3.46-2.97c-.24-.21-.27-.57-.06-.81s.57-.27.81-.06l3.46,2.97c.24.21.55.31.87.28.32-.02.61-.17.82-.42l1.21-1.43c.43-.5.37-1.26-.13-1.68l-3.45-2.96c-.24-.21-.27-.57-.06-.81.21-.24.57-.27.81-.06l3.45,2.96c.98.84,1.09,2.32.26,3.3l-1.21,1.43c-.41.48-.98.77-1.6.82-.06,0-.13,0-.19,0Z"/><path class="cls-1" d="M24.4,57.79c-.13,0-.26-.04-.37-.14l-3.67-3.12c-.24-.21-.27-.57-.07-.81.21-.24.57-.27.81-.07l3.67,3.12c.24.21.27.57.07.81-.11.13-.28.2-.44.2Z"/><path class="cls-1" d="M49.68,14.06c-.2,0-.4-.11-.51-.3l-1.66-3.02c-.13-.22-.39-.35-.66-.32l-1.27.6c-.85.18-1.69-.26-2.04-1.05-2.43-5.4-9.45-7.51-9.52-7.53-.3-.09-.48-.41-.39-.71.09-.3.41-.48.71-.39.31.09,7.6,2.28,10.24,8.16.13.28.4.44.7.41l1.27-.6c.78-.16,1.56.19,1.96.87l1.66,3.03c.15.28.05.63-.23.78-.09.05-.18.07-.28.07Z"/><path class="cls-1" d="M43.23,6.04h-2.49c-.32,0-.58-.26-.58-.58s.26-.58.58-.58h2.49l-2.83-2.07c-.26-.19-.31-.55-.12-.8.19-.26.55-.31.8-.12l2.83,2.08c.41.3.57.8.41,1.28s-.59.79-1.09.79Z"/><path class="cls-1" d="M33.47,81.23c-.25,0-.47-.16-.55-.4-.09-.3.08-.63.38-.72l4.82-1.5c.29-.09.47-.38.42-.68l-.4-2.33c-.05-.31.16-.61.47-.66.31-.05.61.16.66.47l.4,2.33c.15.86-.37,1.71-1.21,1.97l-4.82,1.5c-.06.02-.11.03-.17.03Z"/><path class="cls-1" d="M39.11,82.02c-.75,0-1.45-.49-1.68-1.24l-.39-1.24c-.09-.3.08-.63.38-.72.31-.09.63.08.72.38l.39,1.24c.09.3.41.48.72.41l6.39-1.54c.31-.07.62.12.69.43.07.31-.12.62-.43.69l-6.39,1.54c-.14.03-.27.05-.41.05Z"/><path class="cls-1" d="M69.69,65.8c-.1,0-.2-.03-.3-.08-.27-.16-.36-.52-.2-.79l4.14-6.89c.16-.27.52-.36.79-.2.27.16.36.52.2.79l-4.14,6.89c-.11.18-.3.28-.49.28Z"/><path class="cls-2" d="M60.33,26.52c-.05-.1-.16-.15-.3-.13,0-.04-.01-.08-.03-.12-.05-.12-.18-.18-.33-.18,0-.05-.02-.1-.04-.14-.07-.15-.24-.23-.43-.21-.01,0-.03,0-.04,0,0-.12-.01-.22-.05-.3-.07-.15-.21-.24-.38-.26,0-.06-.02-.12-.05-.18-.08-.18-.26-.3-.46-.29-.01,0-.05,0-.07,0,0-.15-.02-.26-.07-.37-.08-.17-.24-.29-.41-.32-.01-.08-.03-.15-.06-.22-.09-.2-.28-.34-.48-.35-.02,0-.04,0-.07,0,0-.15-.03-.27-.08-.38-.01-.03-.04-.04-.05-.07.13-.1.24-.22.29-.38.05-.15.06-.29.05-.48.03,0,.05-.01.08-.02.19-.07.34-.25.41-.46.04-.12.05-.25.04-.39,0,0,.01,0,.02,0,.18-.06.34-.23.4-.43.05-.15.05-.3.02-.58.05,0,.1,0,.15-.02.18-.05.32-.19.38-.38.03-.1.03-.2.02-.32.17-.03.3-.16.34-.33.02-.1.02-.19,0-.31.16-.01.28-.11.32-.27.02-.09.01-.18-.01-.3.15.01.27-.07.29-.21.02-.15-.04-.34-.18-.72.05-.02.09-.07.09-.14,0-.23-.24-.67-.52-1,0,0-.01-.01-.01-.02,0,0,0-.01-.01-.02-.15-.2-.37-.53-.58-.59-.12-.04-.2.04-.22.21-.01.11,0,.24.05.43-.02,0-.04,0-.06-.01-.14,0-.24.11-.27.29-.02.1-.02.21,0,.33,0,0,0,0,0,0-.15.01-.27.15-.31.34-.02.11-.02.21,0,.34-.16.03-.28.19-.34.39-.03.11-.03.22-.02.35-.16.05-.3.22-.36.42-.04.16-.05.32-.02.61-.05,0-.1.01-.15.03-.17.06-.33.24-.39.46-.04.13-.05.26-.04.4,0,0-.01,0-.02,0-.18.07-.34.26-.41.48-.05.15-.06.3-.05.49-.02,0-.05.02-.08.03-.09.04-.17.1-.24.18-.05-.02-.1-.04-.16-.04,0,0-.01,0-.02,0,0-.12-.03-.22-.07-.32-.09-.2-.25-.33-.44-.35,0-.09-.03-.17-.06-.25-.09-.2-.27-.33-.46-.33-.03-.01-.06,0-.09,0,0-.18-.02-.3-.07-.41-.07-.18-.22-.29-.39-.29,0-.07-.02-.14-.05-.2-.07-.17-.21-.27-.38-.26,0-.07-.02-.14-.04-.2-.07-.16-.2-.24-.36-.22,0-.07-.01-.13-.04-.19-.06-.16-.21-.23-.39-.16,0,0-.02,0-.02,0,0-.11,0-.19-.02-.26-.05-.15-.19-.18-.36-.1-.28.14-.52.49-.7.75-.01.02-.03.04-.04.06-.29.33-.46.69-.37.88.03.05.07.09.14.1-.1.34-.12.5-.06.63.06.12.2.18.37.15,0,.06.02.12.04.17.07.13.21.21.38.21,0,.06.02.12.05.18.07.15.22.24.39.24,0,.07.03.13.05.19.08.17.26.28.46.28.03,0,.06,0,.09,0,0,.17.02.28.07.39.08.18.25.3.44.32,0,.09.03.17.07.24.09.2.28.33.48.35,0,0,.01,0,.02,0,0,.12.03.21.08.31.06.12.15.22.25.29,0,.01-.02.03-.02.04-.05.16-.06.3-.05.55-.04,0-.08.02-.12.03-.18.07-.34.24-.41.45-.04.11-.05.22-.04.35-.18.06-.33.22-.39.42-.05.14-.05.29-.02.53-.04,0-.08,0-.12.02-.17.04-.32.18-.37.37-.03.1-.03.19-.02.29-.16.04-.28.15-.33.32-.03.12-.03.25.01.45-.03,0-.06,0-.09,0-.16,0-.28.1-.32.25-.02.07-.01.15,0,.24-.13,0-.23.07-.25.19,0,.06,0,.13.01.21-.12-.02-.2.02-.21.13-.02.21.22.64.5.98.03.03.06.06.08.09.03.05.07.1.11.15.2.28.38.53.54.68.06.06.12.1.19.11.13.04.22-.05.24-.21.01-.08,0-.16,0-.25.12,0,.2-.11.23-.27.02-.09.02-.17,0-.27.13-.02.23-.15.27-.32.03-.13.03-.28,0-.49.03,0,.06,0,.09,0,.16-.03.29-.18.34-.38.03-.1.04-.21.03-.32.16-.05.29-.21.34-.41.04-.15.05-.3.03-.56.04,0,.08-.01.12-.03.17-.06.32-.24.39-.46.04-.12.05-.24.05-.36.18-.07.33-.26.4-.48.05-.16.06-.31.05-.56.04,0,.08-.02.12-.04,0,.15.03.27.08.38.08.19.24.32.41.35,0,.08.03.15.06.22.09.21.26.34.46.35.02,0,.04,0,.07,0,0,.15.02.27.07.38.07.18.21.29.37.31,0,.07.02.13.05.2.08.19.24.3.43.28.02,0,.03,0,.04,0,0,.13,0,.23.04.33.06.15.18.24.32.24,0,.06.02.11.03.16.05.14.16.22.3.21,0,.05.01.1.03.14.05.16.19.21.36.14,0,0,0,0,0,0,.31-.14.54-.5.88-.97.06-.09.12-.17.17-.24,0,0,.01-.01.02-.02.32-.33.52-.73.42-.94Z"/><path class="cls-2" d="M36,38.42c7.22,1.37,14.11-.6,17.53-7.52,0,0,.11.04.11.04-1.88,5.06-6.97,9-12.46,8.99-1.83-.05-3.66-.49-5.21-1.41l.04-.11h0Z"/><path class="cls-2" d="M73.7,55.53l-6.68-6.75c2.89.1,7.05-.25,9.74-2.58,1.86-1.61,2.74-3.88,2.62-6.75-.26-6.38-6.09-9.23-11.75-9.23l-8.54.6c1.96-4.56,2.36-9.43,1.1-14.08C56.78,4.17,42.14-2.85,27.54,1.1,12.94,5.06,3.84,18.51,7.25,31.09c1.6,5.92,5.7,10.77,11.57,13.76l-9.13,10.64-.09.1-.06.12c-.8,1.54-1.29,3.19-1.43,4.92-.55,6.51,4.21,12.15,10.84,12.84,2.43.25,4.85-.17,7.02-1.21,2.03-.98,3.7-2.59,4.83-4.66l.99-1.81-.82,11.98h0c-.71,6.83,4.25,12.97,11.07,13.7.44.05.87.07,1.31.07,6.09,0,11.41-4.62,12.43-11.03l1.8-7.54,4.78,1.9c3.72,1.71,5.2,2.21,8.37,1.55,5.2-1.08,8.94-5.71,8.91-11-.02-3.68-2.99-7.6-5.94-9.86ZM67.67,32.53c4.22.01,9.2,1.86,9.41,7.02.09,2.16-.51,3.77-1.82,4.91-3.54,3.08-11.01,1.75-11.09,1.74l-3.39-.62c-1.18-.85-2.49-1.54-3.68-2.34-1.63-1.01-3.22-2.07-4.78-3.18,1.68-1.5,3.18-3.16,4.43-5,.41-.6.79-1.22,1.14-1.84l9.77-.69ZM9.47,30.49C6.4,19.13,14.77,6.95,28.14,3.32c.8-.22,1.6-.39,2.4-.53,2.01.76,3.87,1.89,5.56,3.2,5.52,4.25,9,10.62,10.31,17.4.7,3.39.95,6.86.75,10.32.51-3.44.41-6.99-.25-10.42-1.22-6.89-4.93-13.4-10.61-17.57-1.65-1.23-3.49-2.28-5.45-2.98,1.65-.28,3.28-.44,4.89-.44,10.5,0,19.73,5.87,22.21,15.05,1.22,4.51.68,9.27-1.5,13.66h-.05s0,.08,0,.08c-.45.91-.97,1.8-1.56,2.67-3.52,5.17-9.05,8.99-15.56,10.75-6.51,1.76-13.21,1.26-18.86-1.43-5.59-2.66-9.49-7.13-10.97-12.6ZM53.5,80.1c-.88,5.67-5.8,9.66-11.22,9.07-5.58-.6-9.63-5.63-9.02-11.21l.06-.55-.02-.02,1.5-22-6.02,11.09c-.89,1.64-2.21,2.92-3.8,3.69-1.78.86-3.78,1.2-5.78.99-5.37-.56-9.23-5.11-8.79-10.35.12-1.38.49-2.7,1.12-3.93l9.48-11.05c3.26,1.3,6.79,1.97,10.4,2,.35.27.69.57,1,.89,1.29,1.48,1.83,3.4,2.17,5.36.02-.8-.02-1.61-.2-2.41-.3-1.6-1.06-2.87-2.11-3.86,2.53-.05,5.1-.4,7.63-1.09,1.64-.44,3.22-1.02,4.73-1.7,4.19,2.51,7.19,6.65,9.13,11.11,1.87,4.4,2.73,9.47,1.5,14.16-3.04,2-6.7,3.02-10.33,2.32-.57-.06-1.14-.16-1.7-.29,4.1,1.79,8.86.68,12.52-1.67l-2.23,9.34-.02.09ZM70.25,74.15c-2.49.52-3.4.24-6.97-1.4l-1.69-.67-1.59-3.32c.5-.65.92-1.34,1.11-2.12,2.14-2.48,3.55-5.57,3.84-8.83-.93,4.56-3.57,8.91-7.57,11.37-.4.2-.81.39-1.22.57-.01-.02-.03-.05-.03-.05-.25.19-.52.36-.78.54.83-2.35.94-4.92.73-7.39-.84-7.11-4.82-14.48-11.27-17.88,2.61-1.19,5-2.73,7.11-4.54,1.65,1.07,3.33,2.09,5.03,3.06,1.2.74,2.51,1.37,3.7,2.15l11.45,11.58.12.11c2.98,2.27,5.08,5.6,5.09,8.1.03,4.2-2.95,7.88-7.08,8.73Z"/><circle class="cls-2" cx="87.25" cy="36.44" r="5.78"/><path class="cls-3" d="M84.17,33.37c-.82.82-1.27,1.91-1.27,3.08,0,2.21,1.68,4.02,3.82,4.28v-8.59c-.96.12-1.86.53-2.55,1.23Z"/><polygon class="cls-3" points="177.61 65.03 177.56 75.89 178.96 76.67 181.53 76.9 182.76 58.87 179.8 59.71 177.61 65.03"/><polygon class="cls-3" points="131.75 65.03 131.69 75.89 133.09 76.67 135.67 76.9 136.9 58.87 133.93 59.71 131.75 65.03"/><polygon class="cls-3" points="111.92 65.03 111.86 75.89 113.26 76.67 115.84 76.9 117.07 58.87 114.1 59.71 111.92 65.03"/><polygon class="cls-3" points="197.44 65.03 197.38 75.89 198.78 76.67 201.36 76.9 202.59 58.87 199.62 59.71 197.44 65.03"/><path class="cls-2" d="M87.26,40.78c2.4,0,4.34-1.96,4.34-4.35,0-2.39-1.95-4.34-4.35-4.34h0c-.18,0-.35.03-.52.05v8.59c.18.02.35.05.53.05h.01Z"/><path class="cls-2" d="M87.24,29.22c3.98,0,7.21,3.23,7.22,7.21h0c0,3.98-3.22,7.23-7.21,7.24h-.02c-.18,0-.35-.01-.53-.03v3.41h13.68V13.62h20.52V1.43h-54.73v12.18h20.52v15.62c.17-.01.34-.03.51-.03h.02Z"/><polygon class="cls-2" points="175.79 35.9 139.3 35.9 139.3 29.84 171.23 29.84 171.23 18.64 139.3 18.64 139.3 12.58 175.79 12.58 175.79 1.43 125.62 1.43 125.62 47.04 175.79 47.04 175.79 35.9"/><path class="cls-2" d="M198.36,15.02c1.63-.93,3.4-1.4,5.31-1.4h30.43V1.43h-31.93c-6.3,0-11.67,2.23-16.13,6.68s-6.68,9.83-6.68,16.13,2.23,11.67,6.68,16.13c4.45,4.45,9.83,6.68,16.13,6.68h31.93v-12.18h-30.43c-1.91,0-3.68-.47-5.31-1.4-1.63-.93-2.92-2.23-3.88-3.88-.96-1.65-1.43-3.43-1.43-5.34s.48-3.69,1.43-5.34c.95-1.65,2.25-2.94,3.88-3.88Z"/><polygon class="cls-1" points="97.75 58.25 94.22 74.94 92.09 64.52 91.65 50.47 84.59 51.31 84.25 57.69 89.18 81.71 97.47 82.78 103.52 65.81 104.47 49.85 97.75 49.4 97.75 58.25"/><path class="cls-1" d="M118.58,53.21l-10.47.78-2.52,3.58.95,24.14,7.06,1.9,7.67-2.46,3.02-12.32-.45-12.94-5.26-2.69ZM115.84,76.9l-2.58-.22-1.4-.78.06-10.86,2.18-5.32,2.97-.84-1.23,18.03Z"/><path class="cls-1" d="M138.41,53.21l-10.47.78-2.52,3.58.95,24.14,7.06,1.9,7.67-2.46,3.02-12.32-.45-12.94-5.26-2.69ZM135.67,76.9l-2.58-.22-1.4-.78.06-10.86,2.18-5.32,2.97-.84-1.23,18.03Z"/><polygon class="cls-1" points="145.69 49.35 145.24 59.93 158.91 58.64 161.87 61.44 160.36 77.74 156.72 79.25 154.2 77.51 154.87 67.71 154.54 60.15 148.27 60.66 148.21 70.57 147.48 83.23 154.37 87.31 166.36 82.05 170.16 57.75 165.07 50.24 145.69 49.35"/><path class="cls-1" d="M184.28,53.21l-10.47.78-2.52,3.58.95,24.14,7.06,1.9,7.67-2.46,3.02-12.32-.45-12.94-5.26-2.69ZM181.53,76.9l-2.58-.22-1.4-.78.06-10.86,2.18-5.32,2.97-.84-1.23,18.03Z"/><path class="cls-1" d="M204.1,53.21l-10.47.78-2.52,3.58.95,24.14,7.06,1.9,7.67-2.46,3.02-12.32-.45-12.94-5.26-2.69ZM201.36,76.9l-2.58-.22-1.4-.78.06-10.86,2.18-5.32,2.97-.84-1.23,18.03Z"/><path class="cls-3" d="M36.85,30.66c0-3.46-2.18-6.41-5.24-7.57,2.67,1.81,4.43,4.87,4.43,8.33,0,1.56-.36,3.02-.99,4.34,1.13-1.39,1.81-3.17,1.81-5.1Z"/><path class="cls-2" d="M29.52,22.01c-1.11-.42-2.3-.66-3.55-.66-5.56,0-10.06,4.5-10.06,10.06s4.5,10.06,10.06,10.06c3.19,0,6.03-1.49,7.88-3.81,2.16-1.58,3.58-4.13,3.58-7.01,0-4.52-3.48-8.25-7.9-8.64ZM25.97,39.76c-4.6,0-8.34-3.74-8.34-8.34s3.74-8.34,8.34-8.34,8.34,3.74,8.34,8.34-3.74,8.34-8.34,8.34ZM31.6,23.08c3.06,1.16,5.24,4.11,5.24,7.57,0,1.93-.68,3.7-1.81,5.1.63-1.31.99-2.78.99-4.34,0-3.47-1.76-6.53-4.43-8.33Z"/><path class="cls-2" d="M25.97,24.07c-4.05,0-7.34,3.29-7.34,7.34s3.29,7.34,7.34,7.34,7.34-3.29,7.34-7.34-3.29-7.34-7.34-7.34ZM26.19,38.42c-3.86,0-7-3.14-7-7s3.14-7,7-7,7,3.14,7,7-3.14,7-7,7Z"/><path class="cls-4" d="M26.19,24.17c-3.99,0-7.25,3.26-7.25,7.25s3.26,7.25,7.25,7.25,7.25-3.26,7.25-7.25-3.26-7.25-7.25-7.25Z"/><path class="cls-2" d="M26.19,37.84c-3.54,0-6.43-2.88-6.43-6.43s2.88-6.43,6.43-6.43c.77,0,1.5.14,2.18.39-.3-.05-.6-.08-.92-.08-1.19,0-2.29.37-3.2,1,1.31.28,2.3,1.44,2.3,2.84,0,1.61-1.3,2.91-2.91,2.91-.69,0-1.31-.25-1.81-.65.24,2.89,2.66,5.17,5.61,5.17,1.78,0,3.37-.83,4.4-2.12-1.08,2.02-3.22,3.4-5.67,3.4Z"/><path class="cls-1" d="M27.46,29.84c-.6,0-1.09.49-1.09,1.09s.49,1.09,1.09,1.09,1.09-.49,1.09-1.09-.49-1.09-1.09-1.09Z"/><path class="cls-1" d="M53.5,72.63c-.11,0-.21-.06-.26-.16l-.7-1.39c-.07-.14-.01-.32.13-.39.14-.07.32-.01.39.13l.7,1.39c.07.14.01.31-.13.39-.04.02-.09.03-.13.03Z"/><path class="cls-1" d="M62.43,66.42c-.06,0-.12-.02-.17-.05l-1.27-.9c-.13-.09-.16-.27-.07-.4.09-.13.27-.16.4-.07l1.27.9c.13.09.16.27.07.4-.06.08-.14.12-.23.12Z"/><path class="cls-1" d="M63.56,64.67s-.05,0-.08-.01l-1.5-.41c-.15-.04-.24-.2-.2-.35.04-.15.2-.24.35-.2l1.5.41c.15.04.24.2.2.35-.03.13-.15.21-.28.21Z"/><path class="cls-1" d="M51.23,73.43c-.13,0-.26-.1-.28-.23-.11-.55-.17-1.11-.2-1.69,0-.16.11-.29.27-.3.15-.02.29.12.3.27.03.54.09,1.08.19,1.6.03.16-.07.31-.23.34-.02,0-.04,0-.06,0Z"/><path class="cls-1" d="M33.07,50.99c-.1,0-.2-.06-.26-.16-.07-.14-.02-.31.12-.39.4-.21.82-.39,1.25-.53.15-.05.31.03.36.18.05.15-.03.31-.18.36-.4.13-.8.3-1.17.5-.04.02-.09.03-.13.03Z"/><path class="cls-1" d="M53.66,42.1c-.06,0-.13-.02-.18-.06-.12-.1-.14-.28-.04-.4.28-.35.6-.68.93-.99.12-.11.3-.1.41.02s.1.3-.02.41c-.32.29-.61.6-.87.93-.06.07-.14.11-.22.11Z"/><path class="cls-1" d="M45.19,21.24c-.13,0-.25-.09-.28-.22-.03-.16.06-.31.22-.34.54-.12,1.11-.2,1.68-.25.16-.01.3.11.31.27s-.11.3-.27.31c-.54.04-1.08.12-1.6.23-.02,0-.04,0-.06,0Z"/><path class="cls-1" d="M33,5.02c-.09,0-.18-.04-.24-.13-.09-.13-.05-.31.08-.4.46-.31.96-.6,1.47-.84.14-.07.32,0,.38.14s0,.32-.14.38c-.49.23-.96.5-1.4.8-.05.03-.11.05-.16.05Z"/><path class="cls-1" d="M31.87,4.2c-.11,0-.21-.06-.26-.17-.07-.14,0-.32.14-.38.51-.24,1.04-.44,1.59-.61.15-.05.31.04.36.19.05.15-.04.31-.19.36-.52.16-1.03.35-1.51.58-.04.02-.08.03-.12.03Z"/><path class="cls-1" d="M32.46,49.77c-.1,0-.2-.06-.26-.15-.07-.14-.02-.31.12-.39.4-.21.82-.39,1.25-.53.15-.05.31.03.36.18.05.15-.03.31-.18.36-.4.13-.8.3-1.17.5-.04.02-.09.03-.13.03Z"/><path class="cls-1" d="M39.6,40.47s-.02,0-.04,0c-.16-.02-.27-.16-.25-.32.08-.63.1-1.27.07-1.9,0-.16.11-.29.27-.3.18-.02.29.11.3.27.03.67,0,1.34-.07,2-.02.15-.14.25-.28.25Z"/><path class="cls-1" d="M48.21,38.44c-.15,0-.28-.12-.29-.27-.04-.63-.14-1.26-.29-1.88-.04-.15.06-.31.21-.35.16-.03.31.06.35.21.16.65.26,1.32.3,1.98.01.16-.11.3-.27.31,0,0-.01,0-.02,0Z"/><path class="cls-1" d="M52.84,34.01c-.06,0-.13-.02-.18-.06-.13-.1-.29-.31-.47-.54-.14-.17-.31-.39-.38-.45-.12-.1-.14-.28-.04-.4.1-.12.28-.14.4-.04.13.1.29.31.47.54.14.17.31.39.38.45.12.1.14.28.04.4-.06.07-.14.11-.22.11Z"/><path class="cls-1" d="M51.3,36.33c-.1,0-.2-.05-.25-.15l-.97-1.78c-.08-.14-.02-.31.12-.39.14-.07.31-.02.39.12l.97,1.78c.08.14.03.31-.11.39-.04.02-.09.04-.14.04Z"/><path class="cls-1" d="M43.25,40.27s-.02,0-.03,0c-.16-.02-.27-.16-.26-.32.06-.61.04-1.22-.07-1.82-.03-.16.07-.31.23-.33.15-.03.31.07.33.23.12.65.15,1.32.08,1.98-.02.15-.14.26-.29.26Z"/><path class="cls-2" d="M87.23,30.66c-3.19,0-5.78,2.6-5.77,5.8,0,.43.05.84.14,1.24l-26.08,13.56c-.23.09-.34.33-.26.57.06.18.22.29.42.29.06,0,.11,0,.17-.03l26.78-12.17c1.06,1.4,2.74,2.31,4.63,2.31,3.19,0,5.78-2.6,5.77-5.8,0-3.19-2.6-5.78-5.8-5.77Z"/><path class="cls-2" d="M79.66,28.39c2.83-1.47,3.94-4.97,2.46-7.8-1.47-2.83-4.97-3.94-7.8-2.46-2.83,1.47-3.94,4.97-2.46,7.8.17.32.36.62.58.89l-19.46,22.02c-.16.19-.15.45.03.62.09.08.2.12.31.12.12,0,.23-.05.32-.14l20.7-21.06c1.61.83,3.59.9,5.32,0Z"/><path class="cls-2" d="M19.54,46.35l-12.34-5.15c.03-.18.06-.37.06-.56.06-2.01-1.53-3.68-3.53-3.73-2.01-.06-3.68,1.53-3.73,3.53-.06,2.01,1.53,3.68,3.53,3.73,1.19.03,2.25-.51,2.94-1.37l12.69,4.52c.06.02.12.03.18.03.21,0,.4-.13.48-.34.1-.27-.02-.56-.29-.67Z"/><path class="cls-2" d="M41.8,68.64c-.09-.19-.32-.27-.51-.19l-15.38,6.93c-.75-.86-1.9-1.35-3.12-1.22-1.99.22-3.43,2.01-3.22,4.01.22,1.99,2.01,3.43,4.01,3.22,1.99-.22,3.43-2.01,3.22-4.01-.02-.18-.06-.35-.1-.51l14.94-7.71c.19-.1.27-.33.17-.52Z"/></g></svg>