<?xml version="1.0" encoding="UTF-8"?><svg id="Layer_2" xmlns="http://www.w3.org/2000/svg" viewBox="0 0 197.33 108.47"><defs><style>.cls-1{fill:#23ffd6;}.cls-2{fill:#fff;}</style></defs><g id="Layer_3"><path class="cls-2" d="M116.37,0v25.91h-43.64v71.07h-29.09V25.91H0V0h116.37Z"/><path class="cls-1" d="M100.35,34.46l.89,28.03,4.24,20.77,7.04-33.27v-17.64l13.4.89-1.9,31.82-12.06,33.83-16.53-2.12-9.83-47.9.67-12.73,14.07-1.67Z"/><path class="cls-1" d="M186.07,92.92l-35.41,15.56-20.35-12.08,2.15-37.4.17-29.29,18.53-1.49.99,22.34-1.99,28.96,7.45,5.13,10.76-4.47,4.47-48.15-8.77-8.27-40.38,3.81.64-27.56,57.25,2.65,15.74,18.45-11.25,71.82Z"/></g></svg>